<?xml version="1.0" standalone="no"?><!DOCTYPE svg PUBLIC "-//W3C//DTD SVG 1.1//EN" "http://www.w3.org/Graphics/SVG/1.1/DTD/svg11.dtd"><svg t="1667305920832" class="icon" viewBox="0 0 1024 1024" version="1.1" xmlns="http://www.w3.org/2000/svg" p-id="3605" xmlns:xlink="http://www.w3.org/1999/xlink" width="250" height="250"><path d="M192 438.4c12.8 0 24-11.2 24-24V256c0-22.4 17.6-40 40-40h158.4c12.8 0 24-11.2 24-24s-11.2-24-24-24H256c-48 0-88 40-88 88v158.4c0 12.8 11.2 24 24 24zM768 168h-158.4c-12.8 0-24 11.2-24 24s11.2 24 24 24H768c22.4 0 40 17.6 40 40v158.4c0 12.8 11.2 24 24 24s24-11.2 24-24V256c0-48-40-88-88-88zM832 585.6c-12.8 0-24 11.2-24 24V768c0 22.4-17.6 40-40 40h-158.4c-12.8 0-24 11.2-24 24s11.2 24 24 24H768c48 0 88-40 88-88v-158.4c0-12.8-11.2-24-24-24zM414.4 808H256c-22.4 0-40-17.6-40-40v-158.4c0-12.8-11.2-24-24-24s-24 11.2-24 24V768c0 48 40 88 88 88h158.4c12.8 0 24-11.2 24-24s-11.2-24-24-24zM832 488H192c-12.8 0-24 11.2-24 24s11.2 24 24 24h640c12.8 0 24-11.2 24-24s-11.2-24-24-24z" p-id="3606" fill="#ffffff"></path></svg>